<?xml version="1.0" encoding="us-ascii" standalone="no"?><svg xmlns="http://www.w3.org/2000/svg" xmlns:xlink="http://www.w3.org/1999/xlink" contentStyleType="text/css" height="603px" preserveAspectRatio="none" style="width:1893px;height:603px;background:#FFFFFF;" version="1.1" viewBox="0 0 1893 603" width="1893px" zoomAndPan="magnify"><defs/><g><!--class Item--><g id="elem_Item"><rect codeLine="4" fill="#F1F1F1" height="194.6719" id="Item" rx="2.5" ry="2.5" style="stroke:#181818;stroke-width:0.5;" width="231" x="705" y="7"/><ellipse cx="801.25" cy="23" fill="#A9DCDF" rx="11" ry="11" style="stroke:#181818;stroke-width:1.0;"/><path d="M801.3594,18.3438 L800.2031,23.4219 L802.5313,23.4219 L801.3594,18.3438 Z M799.875,16.1094 L802.8594,16.1094 L806.2188,28.5 L803.7656,28.5 L803,25.4375 L799.7188,25.4375 L798.9688,28.5 L796.5313,28.5 L799.875,16.1094 Z " fill="#000000"/><text fill="#000000" font-family="sans-serif" font-size="14" font-style="italic" lengthAdjust="spacing" textLength="30" x="821.75" y="27.8467">Item</text><line style="stroke:#181818;stroke-width:0.5;" x1="706" x2="935" y1="39" y2="39"/><ellipse cx="716" cy="52.6484" fill="none" rx="3" ry="3" style="stroke:#038048;stroke-width:1.0;"/><text fill="#000000" font-family="sans-serif" font-size="14" lengthAdjust="spacing" textLength="83" x="725" y="55.9951">String name</text><ellipse cx="716" cy="68.9453" fill="none" rx="3" ry="3" style="stroke:#038048;stroke-width:1.0;"/><text fill="#000000" font-family="sans-serif" font-size="14" lengthAdjust="spacing" textLength="123" x="725" y="72.292">int attackStrength</text><ellipse cx="716" cy="85.2422" fill="none" rx="3" ry="3" style="stroke:#038048;stroke-width:1.0;"/><text fill="#000000" font-family="sans-serif" font-size="14" lengthAdjust="spacing" textLength="138" x="725" y="88.5889">int defenseStrength</text><line style="stroke:#181818;stroke-width:0.5;" x1="706" x2="935" y1="95.8906" y2="95.8906"/><ellipse cx="716" cy="109.5391" fill="#84BE84" rx="3" ry="3" style="stroke:#038048;stroke-width:1.0;"/><text fill="#000000" font-family="sans-serif" font-size="14" lengthAdjust="spacing" textLength="122" x="725" y="112.8857">getName(): String</text><ellipse cx="716" cy="125.8359" fill="#84BE84" rx="3" ry="3" style="stroke:#038048;stroke-width:1.0;"/><text fill="#000000" font-family="sans-serif" font-size="14" lengthAdjust="spacing" textLength="162" x="725" y="129.1826">getAttackStrength(): int</text><ellipse cx="716" cy="142.1328" fill="#84BE84" rx="3" ry="3" style="stroke:#038048;stroke-width:1.0;"/><text fill="#000000" font-family="sans-serif" font-size="14" lengthAdjust="spacing" textLength="178" x="725" y="145.4795">getDefenseStrength(): int</text><ellipse cx="716" cy="158.4297" fill="#84BE84" rx="3" ry="3" style="stroke:#038048;stroke-width:1.0;"/><text fill="#000000" font-family="sans-serif" font-size="14" lengthAdjust="spacing" textLength="149" x="725" y="161.7764">setName(String): void</text><ellipse cx="716" cy="174.7266" fill="#84BE84" rx="3" ry="3" style="stroke:#038048;stroke-width:1.0;"/><text fill="#000000" font-family="sans-serif" font-size="14" lengthAdjust="spacing" textLength="189" x="725" y="178.0732">setAttackStrength(int): void</text><ellipse cx="716" cy="191.0234" fill="#84BE84" rx="3" ry="3" style="stroke:#038048;stroke-width:1.0;"/><text fill="#000000" font-family="sans-serif" font-size="14" lengthAdjust="spacing" textLength="205" x="725" y="194.3701">setDefenseStrength(int): void</text></g><!--class HeadGear--><g id="elem_HeadGear"><rect codeLine="16" fill="#F1F1F1" height="64.2969" id="HeadGear" rx="2.5" ry="2.5" style="stroke:#181818;stroke-width:0.5;" width="101" x="229" y="294.27"/><ellipse cx="244" cy="310.27" fill="#ADD1B2" rx="11" ry="11" style="stroke:#181818;stroke-width:1.0;"/><path d="M246.9688,315.9106 Q246.3906,316.2075 245.75,316.3481 Q245.1094,316.5044 244.4063,316.5044 Q241.9063,316.5044 240.5781,314.8638 Q239.2656,313.2075 239.2656,310.0825 Q239.2656,306.9575 240.5781,305.3013 Q241.9063,303.645 244.4063,303.645 Q245.1094,303.645 245.75,303.8013 Q246.4063,303.9575 246.9688,304.2544 L246.9688,306.9731 Q246.3438,306.395 245.75,306.1294 Q245.1563,305.8481 244.5313,305.8481 Q243.1875,305.8481 242.5,306.9263 Q241.8125,307.9888 241.8125,310.0825 Q241.8125,312.1763 242.5,313.2544 Q243.1875,314.3169 244.5313,314.3169 Q245.1563,314.3169 245.75,314.0513 Q246.3438,313.77 246.9688,313.1919 L246.9688,315.9106 Z " fill="#000000"/><text fill="#000000" font-family="sans-serif" font-size="14" lengthAdjust="spacing" textLength="69" x="258" y="315.1167">HeadGear</text><line style="stroke:#181818;stroke-width:0.5;" x1="230" x2="329" y1="326.27" y2="326.27"/><text fill="#000000" font-family="sans-serif" font-size="14" lengthAdjust="spacing" textLength="85" x="235" y="343.2651">Inherits Item</text><line style="stroke:#181818;stroke-width:0.5;" x1="230" x2="329" y1="350.5669" y2="350.5669"/></g><!--class HandGear--><g id="elem_HandGear"><rect codeLine="20" fill="#F1F1F1" height="80.5938" id="HandGear" rx="2.5" ry="2.5" style="stroke:#181818;stroke-width:0.5;" width="260" x="365.5" y="286.12"/><ellipse cx="456.75" cy="302.12" fill="#ADD1B2" rx="11" ry="11" style="stroke:#181818;stroke-width:1.0;"/><path d="M459.7188,307.7606 Q459.1406,308.0575 458.5,308.1981 Q457.8594,308.3544 457.1563,308.3544 Q454.6563,308.3544 453.3281,306.7138 Q452.0156,305.0575 452.0156,301.9325 Q452.0156,298.8075 453.3281,297.1513 Q454.6563,295.495 457.1563,295.495 Q457.8594,295.495 458.5,295.6513 Q459.1563,295.8075 459.7188,296.1044 L459.7188,298.8231 Q459.0938,298.245 458.5,297.9794 Q457.9063,297.6981 457.2813,297.6981 Q455.9375,297.6981 455.25,298.7763 Q454.5625,299.8388 454.5625,301.9325 Q454.5625,304.0263 455.25,305.1044 Q455.9375,306.1669 457.2813,306.1669 Q457.9063,306.1669 458.5,305.9013 Q459.0938,305.62 459.7188,305.0419 L459.7188,307.7606 Z " fill="#000000"/><text fill="#000000" font-family="sans-serif" font-size="14" lengthAdjust="spacing" textLength="69" x="477.25" y="306.9667">HandGear</text><line style="stroke:#181818;stroke-width:0.5;" x1="366.5" x2="624.5" y1="318.12" y2="318.12"/><text fill="#000000" font-family="sans-serif" font-size="14" lengthAdjust="spacing" textLength="85" x="371.5" y="335.1151">Inherits Item</text><line style="stroke:#181818;stroke-width:0.5;" x1="366.5" x2="624.5" y1="342.4169" y2="342.4169"/><ellipse cx="376.5" cy="356.0653" fill="#84BE84" rx="3" ry="3" style="stroke:#038048;stroke-width:1.0;"/><text fill="#000000" font-family="sans-serif" font-size="14" lengthAdjust="spacing" textLength="234" x="385.5" y="359.412">calculateTotalAttackStrength(): int</text></g><!--class Footwear--><g id="elem_Footwear"><rect codeLine="25" fill="#F1F1F1" height="80.5938" id="Footwear" rx="2.5" ry="2.5" style="stroke:#181818;stroke-width:0.5;" width="319" x="661" y="286.12"/><ellipse cx="784.25" cy="302.12" fill="#ADD1B2" rx="11" ry="11" style="stroke:#181818;stroke-width:1.0;"/><path d="M787.2188,307.7606 Q786.6406,308.0575 786,308.1981 Q785.3594,308.3544 784.6563,308.3544 Q782.1563,308.3544 780.8281,306.7138 Q779.5156,305.0575 779.5156,301.9325 Q779.5156,298.8075 780.8281,297.1513 Q782.1563,295.495 784.6563,295.495 Q785.3594,295.495 786,295.6513 Q786.6563,295.8075 787.2188,296.1044 L787.2188,298.8231 Q786.5938,298.245 786,297.9794 Q785.4063,297.6981 784.7813,297.6981 Q783.4375,297.6981 782.75,298.7763 Q782.0625,299.8388 782.0625,301.9325 Q782.0625,304.0263 782.75,305.1044 Q783.4375,306.1669 784.7813,306.1669 Q785.4063,306.1669 786,305.9013 Q786.5938,305.62 787.2188,305.0419 L787.2188,307.7606 Z " fill="#000000"/><text fill="#000000" font-family="sans-serif" font-size="14" lengthAdjust="spacing" textLength="64" x="804.75" y="306.9667">Footwear</text><line style="stroke:#181818;stroke-width:0.5;" x1="662" x2="979" y1="318.12" y2="318.12"/><text fill="#000000" font-family="sans-serif" font-size="14" lengthAdjust="spacing" textLength="85" x="667" y="335.1151">Inherits Item</text><line style="stroke:#181818;stroke-width:0.5;" x1="662" x2="979" y1="342.4169" y2="342.4169"/><ellipse cx="672" cy="356.0653" fill="#84BE84" rx="3" ry="3" style="stroke:#038048;stroke-width:1.0;"/><text fill="#000000" font-family="sans-serif" font-size="14" lengthAdjust="spacing" textLength="293" x="681" y="359.412">calculateTotalAttackDefenseStrength(): int</text></g><!--class Character--><g id="elem_Character"><rect codeLine="30" fill="#F1F1F1" height="178.375" id="Character" rx="2.5" ry="2.5" style="stroke:#181818;stroke-width:0.5;" width="238" x="1511.5" y="15.15"/><ellipse cx="1592.75" cy="31.15" fill="#ADD1B2" rx="11" ry="11" style="stroke:#181818;stroke-width:1.0;"/><path d="M1595.7188,36.7906 Q1595.1406,37.0875 1594.5,37.2281 Q1593.8594,37.3844 1593.1563,37.3844 Q1590.6563,37.3844 1589.3281,35.7438 Q1588.0156,34.0875 1588.0156,30.9625 Q1588.0156,27.8375 1589.3281,26.1813 Q1590.6563,24.525 1593.1563,24.525 Q1593.8594,24.525 1594.5,24.6813 Q1595.1563,24.8375 1595.7188,25.1344 L1595.7188,27.8531 Q1595.0938,27.275 1594.5,27.0094 Q1593.9063,26.7281 1593.2813,26.7281 Q1591.9375,26.7281 1591.25,27.8063 Q1590.5625,28.8688 1590.5625,30.9625 Q1590.5625,33.0563 1591.25,34.1344 Q1591.9375,35.1969 1593.2813,35.1969 Q1593.9063,35.1969 1594.5,34.9313 Q1595.0938,34.65 1595.7188,34.0719 L1595.7188,36.7906 Z " fill="#000000"/><text fill="#000000" font-family="sans-serif" font-size="14" lengthAdjust="spacing" textLength="67" x="1613.25" y="35.9967">Character</text><line style="stroke:#181818;stroke-width:0.5;" x1="1512.5" x2="1748.5" y1="47.15" y2="47.15"/><ellipse cx="1522.5" cy="60.7984" fill="none" rx="3" ry="3" style="stroke:#038048;stroke-width:1.0;"/><text fill="#000000" font-family="sans-serif" font-size="14" lengthAdjust="spacing" textLength="98" x="1531.5" y="64.1451">int baseAttack</text><ellipse cx="1522.5" cy="77.0953" fill="none" rx="3" ry="3" style="stroke:#038048;stroke-width:1.0;"/><text fill="#000000" font-family="sans-serif" font-size="14" lengthAdjust="spacing" textLength="114" x="1531.5" y="80.442">int baseDefense</text><ellipse cx="1522.5" cy="93.3922" fill="none" rx="3" ry="3" style="stroke:#038048;stroke-width:1.0;"/><text fill="#000000" font-family="sans-serif" font-size="14" lengthAdjust="spacing" textLength="130" x="1531.5" y="96.7389">Inventory inventory</text><line style="stroke:#181818;stroke-width:0.5;" x1="1512.5" x2="1748.5" y1="104.0406" y2="104.0406"/><ellipse cx="1522.5" cy="117.6891" fill="#84BE84" rx="3" ry="3" style="stroke:#038048;stroke-width:1.0;"/><text fill="#000000" font-family="sans-serif" font-size="14" lengthAdjust="spacing" textLength="146" x="1531.5" y="121.0357">equipItem(Item): void</text><ellipse cx="1522.5" cy="133.9859" fill="#84BE84" rx="3" ry="3" style="stroke:#038048;stroke-width:1.0;"/><text fill="#000000" font-family="sans-serif" font-size="14" lengthAdjust="spacing" textLength="164" x="1531.5" y="137.3326">unequipItem(Item): void</text><ellipse cx="1522.5" cy="150.2828" fill="#84BE84" rx="3" ry="3" style="stroke:#038048;stroke-width:1.0;"/><text fill="#000000" font-family="sans-serif" font-size="14" lengthAdjust="spacing" textLength="174" x="1531.5" y="153.6295">calculateTotalAttack(): int</text><ellipse cx="1522.5" cy="166.5797" fill="#84BE84" rx="3" ry="3" style="stroke:#038048;stroke-width:1.0;"/><text fill="#000000" font-family="sans-serif" font-size="14" lengthAdjust="spacing" textLength="190" x="1531.5" y="169.9264">calculateTotalDefense(): int</text><ellipse cx="1522.5" cy="182.8766" fill="#84BE84" rx="3" ry="3" style="stroke:#038048;stroke-width:1.0;"/><text fill="#000000" font-family="sans-serif" font-size="14" lengthAdjust="spacing" textLength="212" x="1531.5" y="186.2232">canEquipMoreItems(): boolean</text></g><!--class Inventory--><g id="elem_Inventory"><rect codeLine="41" fill="#F1F1F1" height="129.4844" id="Inventory" rx="2.5" ry="2.5" style="stroke:#181818;stroke-width:0.5;" width="228" x="1381.5" y="261.67"/><ellipse cx="1459.75" cy="277.67" fill="#ADD1B2" rx="11" ry="11" style="stroke:#181818;stroke-width:1.0;"/><path d="M1462.7188,283.3106 Q1462.1406,283.6075 1461.5,283.7481 Q1460.8594,283.9044 1460.1563,283.9044 Q1457.6563,283.9044 1456.3281,282.2638 Q1455.0156,280.6075 1455.0156,277.4825 Q1455.0156,274.3575 1456.3281,272.7013 Q1457.6563,271.045 1460.1563,271.045 Q1460.8594,271.045 1461.5,271.2013 Q1462.1563,271.3575 1462.7188,271.6544 L1462.7188,274.3731 Q1462.0938,273.795 1461.5,273.5294 Q1460.9063,273.2481 1460.2813,273.2481 Q1458.9375,273.2481 1458.25,274.3263 Q1457.5625,275.3888 1457.5625,277.4825 Q1457.5625,279.5763 1458.25,280.6544 Q1458.9375,281.7169 1460.2813,281.7169 Q1460.9063,281.7169 1461.5,281.4513 Q1462.0938,281.17 1462.7188,280.5919 L1462.7188,283.3106 Z " fill="#000000"/><text fill="#000000" font-family="sans-serif" font-size="14" lengthAdjust="spacing" textLength="63" x="1480.25" y="282.5167">Inventory</text><line style="stroke:#181818;stroke-width:0.5;" x1="1382.5" x2="1608.5" y1="293.67" y2="293.67"/><ellipse cx="1392.5" cy="307.3184" fill="none" rx="3" ry="3" style="stroke:#038048;stroke-width:1.0;"/><text fill="#000000" font-family="sans-serif" font-size="14" lengthAdjust="spacing" textLength="73" x="1401.5" y="310.6651">Slot[] slots</text><line style="stroke:#181818;stroke-width:0.5;" x1="1382.5" x2="1608.5" y1="317.9669" y2="317.9669"/><ellipse cx="1392.5" cy="331.6153" fill="#84BE84" rx="3" ry="3" style="stroke:#038048;stroke-width:1.0;"/><text fill="#000000" font-family="sans-serif" font-size="14" lengthAdjust="spacing" textLength="133" x="1401.5" y="334.962">addItem(Item): void</text><ellipse cx="1392.5" cy="347.9122" fill="#84BE84" rx="3" ry="3" style="stroke:#038048;stroke-width:1.0;"/><text fill="#000000" font-family="sans-serif" font-size="14" lengthAdjust="spacing" textLength="159" x="1401.5" y="351.2589">removeItem(Item): void</text><ellipse cx="1392.5" cy="364.2091" fill="#84BE84" rx="3" ry="3" style="stroke:#038048;stroke-width:1.0;"/><text fill="#000000" font-family="sans-serif" font-size="14" lengthAdjust="spacing" textLength="109" x="1401.5" y="367.5557">isFull(): boolean</text><ellipse cx="1392.5" cy="380.5059" fill="#84BE84" rx="3" ry="3" style="stroke:#038048;stroke-width:1.0;"/><text fill="#000000" font-family="sans-serif" font-size="14" lengthAdjust="spacing" textLength="202" x="1401.5" y="383.8526">initializeSlots(Character): void</text></g><!--class ItemCombiner--><g id="elem_ItemCombiner"><rect codeLine="49" fill="#F1F1F1" height="64.2969" id="ItemCombiner" rx="2.5" ry="2.5" style="stroke:#181818;stroke-width:0.5;" width="241" x="1645" y="294.27"/><ellipse cx="1712.75" cy="310.27" fill="#ADD1B2" rx="11" ry="11" style="stroke:#181818;stroke-width:1.0;"/><path d="M1715.7188,315.9106 Q1715.1406,316.2075 1714.5,316.3481 Q1713.8594,316.5044 1713.1563,316.5044 Q1710.6563,316.5044 1709.3281,314.8638 Q1708.0156,313.2075 1708.0156,310.0825 Q1708.0156,306.9575 1709.3281,305.3013 Q1710.6563,303.645 1713.1563,303.645 Q1713.8594,303.645 1714.5,303.8013 Q1715.1563,303.9575 1715.7188,304.2544 L1715.7188,306.9731 Q1715.0938,306.395 1714.5,306.1294 Q1713.9063,305.8481 1713.2813,305.8481 Q1711.9375,305.8481 1711.25,306.9263 Q1710.5625,307.9888 1710.5625,310.0825 Q1710.5625,312.1763 1711.25,313.2544 Q1711.9375,314.3169 1713.2813,314.3169 Q1713.9063,314.3169 1714.5,314.0513 Q1715.0938,313.77 1715.7188,313.1919 L1715.7188,315.9106 Z " fill="#000000"/><text fill="#000000" font-family="sans-serif" font-size="14" lengthAdjust="spacing" textLength="97" x="1733.25" y="315.1167">ItemCombiner</text><line style="stroke:#181818;stroke-width:0.5;" x1="1646" x2="1885" y1="326.27" y2="326.27"/><line style="stroke:#181818;stroke-width:0.5;" x1="1646" x2="1885" y1="334.27" y2="334.27"/><ellipse cx="1656" cy="347.9184" fill="#84BE84" rx="3" ry="3" style="stroke:#038048;stroke-width:1.0;"/><text fill="#000000" font-family="sans-serif" font-size="14" lengthAdjust="spacing" textLength="215" x="1665" y="351.2651">combineItems(Item, Item): Item</text></g><!--class Slot--><g id="elem_Slot"><rect codeLine="53" fill="#F1F1F1" height="145.7813" id="Slot" rx="2.5" ry="2.5" style="stroke:#181818;stroke-width:0.5;" width="185" x="1403" y="451.16"/><ellipse cx="1478.25" cy="467.16" fill="#ADD1B2" rx="11" ry="11" style="stroke:#181818;stroke-width:1.0;"/><path d="M1481.2188,472.8006 Q1480.6406,473.0975 1480,473.2381 Q1479.3594,473.3944 1478.6563,473.3944 Q1476.1563,473.3944 1474.8281,471.7538 Q1473.5156,470.0975 1473.5156,466.9725 Q1473.5156,463.8475 1474.8281,462.1913 Q1476.1563,460.535 1478.6563,460.535 Q1479.3594,460.535 1480,460.6913 Q1480.6563,460.8475 1481.2188,461.1444 L1481.2188,463.8631 Q1480.5938,463.285 1480,463.0194 Q1479.4063,462.7381 1478.7813,462.7381 Q1477.4375,462.7381 1476.75,463.8163 Q1476.0625,464.8788 1476.0625,466.9725 Q1476.0625,469.0663 1476.75,470.1444 Q1477.4375,471.2069 1478.7813,471.2069 Q1479.4063,471.2069 1480,470.9413 Q1480.5938,470.66 1481.2188,470.0819 L1481.2188,472.8006 Z " fill="#000000"/><text fill="#000000" font-family="sans-serif" font-size="14" lengthAdjust="spacing" textLength="26" x="1498.75" y="472.0067">Slot</text><line style="stroke:#181818;stroke-width:0.5;" x1="1404" x2="1587" y1="483.16" y2="483.16"/><ellipse cx="1414" cy="496.8084" fill="none" rx="3" ry="3" style="stroke:#038048;stroke-width:1.0;"/><text fill="#000000" font-family="sans-serif" font-size="14" lengthAdjust="spacing" textLength="108" x="1423" y="500.1551">String itemType</text><ellipse cx="1414" cy="513.1053" fill="none" rx="3" ry="3" style="stroke:#038048;stroke-width:1.0;"/><text fill="#000000" font-family="sans-serif" font-size="14" lengthAdjust="spacing" textLength="87" x="1423" y="516.452">int maxItems</text><ellipse cx="1414" cy="529.4022" fill="none" rx="3" ry="3" style="stroke:#038048;stroke-width:1.0;"/><text fill="#000000" font-family="sans-serif" font-size="14" lengthAdjust="spacing" textLength="82" x="1423" y="532.7489">Item[] items</text><line style="stroke:#181818;stroke-width:0.5;" x1="1404" x2="1587" y1="540.0506" y2="540.0506"/><ellipse cx="1414" cy="553.6991" fill="#84BE84" rx="3" ry="3" style="stroke:#038048;stroke-width:1.0;"/><text fill="#000000" font-family="sans-serif" font-size="14" lengthAdjust="spacing" textLength="133" x="1423" y="557.0457">addItem(Item): void</text><ellipse cx="1414" cy="569.9959" fill="#84BE84" rx="3" ry="3" style="stroke:#038048;stroke-width:1.0;"/><text fill="#000000" font-family="sans-serif" font-size="14" lengthAdjust="spacing" textLength="159" x="1423" y="573.3426">removeItem(Item): void</text><ellipse cx="1414" cy="586.2928" fill="#84BE84" rx="3" ry="3" style="stroke:#038048;stroke-width:1.0;"/><text fill="#000000" font-family="sans-serif" font-size="14" lengthAdjust="spacing" textLength="109" x="1423" y="589.6395">isFull(): boolean</text></g><!--class ItemFactory--><g id="elem_ItemFactory"><rect codeLine="62" fill="#F1F1F1" height="64.2969" id="ItemFactory" rx="2.5" ry="2.5" style="stroke:#181818;stroke-width:0.5;" width="239" x="7" y="72.19"/><ellipse cx="82.25" cy="88.19" fill="#ADD1B2" rx="11" ry="11" style="stroke:#181818;stroke-width:1.0;"/><path d="M85.2188,93.8306 Q84.6406,94.1275 84,94.2681 Q83.3594,94.4244 82.6563,94.4244 Q80.1563,94.4244 78.8281,92.7838 Q77.5156,91.1275 77.5156,88.0025 Q77.5156,84.8775 78.8281,83.2213 Q80.1563,81.565 82.6563,81.565 Q83.3594,81.565 84,81.7213 Q84.6563,81.8775 85.2188,82.1744 L85.2188,84.8931 Q84.5938,84.315 84,84.0494 Q83.4063,83.7681 82.7813,83.7681 Q81.4375,83.7681 80.75,84.8463 Q80.0625,85.9088 80.0625,88.0025 Q80.0625,90.0963 80.75,91.1744 Q81.4375,92.2369 82.7813,92.2369 Q83.4063,92.2369 84,91.9713 Q84.5938,91.69 85.2188,91.1119 L85.2188,93.8306 Z " fill="#000000"/><text fill="#000000" font-family="sans-serif" font-size="14" lengthAdjust="spacing" textLength="80" x="102.75" y="93.0367">ItemFactory</text><line style="stroke:#181818;stroke-width:0.5;" x1="8" x2="245" y1="104.19" y2="104.19"/><line style="stroke:#181818;stroke-width:0.5;" x1="8" x2="245" y1="112.19" y2="112.19"/><ellipse cx="18" cy="125.8384" fill="#84BE84" rx="3" ry="3" style="stroke:#038048;stroke-width:1.0;"/><text fill="#000000" font-family="sans-serif" font-size="14" lengthAdjust="spacing" textLength="213" x="27" y="129.1851">createItem(String, int, int): Item</text></g><!--class Human--><g id="elem_Human"><rect codeLine="66" fill="#F1F1F1" height="64.2969" id="Human" rx="2.5" ry="2.5" style="stroke:#181818;stroke-width:0.5;" width="134" x="280.5" y="72.19"/><ellipse cx="319.35" cy="88.19" fill="#ADD1B2" rx="11" ry="11" style="stroke:#181818;stroke-width:1.0;"/><path d="M322.3188,93.8306 Q321.7406,94.1275 321.1,94.2681 Q320.4594,94.4244 319.7563,94.4244 Q317.2563,94.4244 315.9281,92.7838 Q314.6156,91.1275 314.6156,88.0025 Q314.6156,84.8775 315.9281,83.2213 Q317.2563,81.565 319.7563,81.565 Q320.4594,81.565 321.1,81.7213 Q321.7563,81.8775 322.3188,82.1744 L322.3188,84.8931 Q321.6938,84.315 321.1,84.0494 Q320.5063,83.7681 319.8813,83.7681 Q318.5375,83.7681 317.85,84.8463 Q317.1625,85.9088 317.1625,88.0025 Q317.1625,90.0963 317.85,91.1744 Q318.5375,92.2369 319.8813,92.2369 Q320.5063,92.2369 321.1,91.9713 Q321.6938,91.69 322.3188,91.1119 L322.3188,93.8306 Z " fill="#000000"/><text fill="#000000" font-family="sans-serif" font-size="14" lengthAdjust="spacing" textLength="49" x="338.65" y="93.0367">Human</text><line style="stroke:#181818;stroke-width:0.5;" x1="281.5" x2="413.5" y1="104.19" y2="104.19"/><text fill="#000000" font-family="sans-serif" font-size="14" lengthAdjust="spacing" textLength="122" x="286.5" y="121.1851">Inherits Character</text><line style="stroke:#181818;stroke-width:0.5;" x1="281.5" x2="413.5" y1="128.4869" y2="128.4869"/></g><!--class Alien--><g id="elem_Alien"><rect codeLine="70" fill="#F1F1F1" height="64.2969" id="Alien" rx="2.5" ry="2.5" style="stroke:#181818;stroke-width:0.5;" width="134" x="59.5" y="294.27"/><ellipse cx="105.75" cy="310.27" fill="#ADD1B2" rx="11" ry="11" style="stroke:#181818;stroke-width:1.0;"/><path d="M108.7188,315.9106 Q108.1406,316.2075 107.5,316.3481 Q106.8594,316.5044 106.1563,316.5044 Q103.6563,316.5044 102.3281,314.8638 Q101.0156,313.2075 101.0156,310.0825 Q101.0156,306.9575 102.3281,305.3013 Q103.6563,303.645 106.1563,303.645 Q106.8594,303.645 107.5,303.8013 Q108.1563,303.9575 108.7188,304.2544 L108.7188,306.9731 Q108.0938,306.395 107.5,306.1294 Q106.9063,305.8481 106.2813,305.8481 Q104.9375,305.8481 104.25,306.9263 Q103.5625,307.9888 103.5625,310.0825 Q103.5625,312.1763 104.25,313.2544 Q104.9375,314.3169 106.2813,314.3169 Q106.9063,314.3169 107.5,314.0513 Q108.0938,313.77 108.7188,313.1919 L108.7188,315.9106 Z " fill="#000000"/><text fill="#000000" font-family="sans-serif" font-size="14" lengthAdjust="spacing" textLength="33" x="126.25" y="315.1167">Alien</text><line style="stroke:#181818;stroke-width:0.5;" x1="60.5" x2="192.5" y1="326.27" y2="326.27"/><text fill="#000000" font-family="sans-serif" font-size="14" lengthAdjust="spacing" textLength="122" x="65.5" y="343.2651">Inherits Character</text><line style="stroke:#181818;stroke-width:0.5;" x1="60.5" x2="192.5" y1="350.5669" y2="350.5669"/></g><!--class IEquippable--><g id="elem_IEquippable"><rect codeLine="76" fill="#F1F1F1" height="80.5938" id="IEquippable" rx="2.5" ry="2.5" style="stroke:#181818;stroke-width:0.5;" width="130" x="1015.5" y="286.12"/><ellipse cx="1038.6" cy="302.12" fill="#B4A7E5" rx="11" ry="11" style="stroke:#181818;stroke-width:1.0;"/><path d="M1034.5219,297.8856 L1034.5219,295.7294 L1041.9125,295.7294 L1041.9125,297.8856 L1039.4438,297.8856 L1039.4438,305.9638 L1041.9125,305.9638 L1041.9125,308.12 L1034.5219,308.12 L1034.5219,305.9638 L1036.9906,305.9638 L1036.9906,297.8856 L1034.5219,297.8856 Z " fill="#000000"/><text fill="#000000" font-family="sans-serif" font-size="14" font-style="italic" lengthAdjust="spacing" textLength="80" x="1054.4" y="306.9667">IEquippable</text><line style="stroke:#181818;stroke-width:0.5;" x1="1016.5" x2="1144.5" y1="318.12" y2="318.12"/><line style="stroke:#181818;stroke-width:0.5;" x1="1016.5" x2="1144.5" y1="326.12" y2="326.12"/><ellipse cx="1026.5" cy="339.7684" fill="#84BE84" rx="3" ry="3" style="stroke:#038048;stroke-width:1.0;"/><text fill="#000000" font-family="sans-serif" font-size="14" lengthAdjust="spacing" textLength="86" x="1035.5" y="343.1151">equip(): void</text><ellipse cx="1026.5" cy="356.0653" fill="#84BE84" rx="3" ry="3" style="stroke:#038048;stroke-width:1.0;"/><text fill="#000000" font-family="sans-serif" font-size="14" lengthAdjust="spacing" textLength="104" x="1035.5" y="359.412">unequip(): void</text></g><!--class ICombinable--><g id="elem_ICombinable"><rect codeLine="81" fill="#F1F1F1" height="64.2969" id="ICombinable" rx="2.5" ry="2.5" style="stroke:#181818;stroke-width:0.5;" width="165" x="1181" y="294.27"/><ellipse cx="1217.6" cy="310.27" fill="#B4A7E5" rx="11" ry="11" style="stroke:#181818;stroke-width:1.0;"/><path d="M1213.5219,306.0356 L1213.5219,303.8794 L1220.9125,303.8794 L1220.9125,306.0356 L1218.4438,306.0356 L1218.4438,314.1138 L1220.9125,314.1138 L1220.9125,316.27 L1213.5219,316.27 L1213.5219,314.1138 L1215.9906,314.1138 L1215.9906,306.0356 L1213.5219,306.0356 Z " fill="#000000"/><text fill="#000000" font-family="sans-serif" font-size="14" font-style="italic" lengthAdjust="spacing" textLength="85" x="1236.4" y="315.1167">ICombinable</text><line style="stroke:#181818;stroke-width:0.5;" x1="1182" x2="1345" y1="326.27" y2="326.27"/><line style="stroke:#181818;stroke-width:0.5;" x1="1182" x2="1345" y1="334.27" y2="334.27"/><ellipse cx="1192" cy="347.9184" fill="#84BE84" rx="3" ry="3" style="stroke:#038048;stroke-width:1.0;"/><text fill="#000000" font-family="sans-serif" font-size="14" lengthAdjust="spacing" textLength="139" x="1201" y="351.2651">combine(Item): Item</text></g><!--reverse link Character to Inventory--><g id="link_Character_Inventory"><path codeLine="87" d="M1568.98,205.63 C1557.35,224.59 1545.49,243.93 1534.78,261.39 " fill="none" id="Character-backto-Inventory" style="stroke:#181818;stroke-width:1.0;"/><polygon fill="#181818" points="1576.17,194.9,1569.6214,197.9192,1569.8897,205.1253,1576.4383,202.1061,1576.17,194.9" style="stroke:#181818;stroke-width:1.0;"/></g><!--reverse link Character to ItemCombiner--><g id="link_Character_ItemCombiner"><path codeLine="88" d="M1692,205.59 C1711.58,237.52 1731.84,270.55 1746.12,293.82 " fill="none" id="Character-backto-ItemCombiner" style="stroke:#181818;stroke-width:1.0;"/><polygon fill="#181818" points="1684.83,194.9,1684.5617,202.1061,1691.1103,205.1253,1691.3786,197.9192,1684.83,194.9" style="stroke:#181818;stroke-width:1.0;"/></g><!--reverse link Inventory to Slot--><g id="link_Inventory_Slot"><path codeLine="89" d="M1495.5,405.07 C1495.5,420.12 1495.5,435.84 1495.5,450.72 " fill="none" id="Inventory-backto-Slot" style="stroke:#181818;stroke-width:1.0;"/><polygon fill="#181818" points="1495.5,392.47,1491.5,398.47,1495.5,404.47,1499.5,398.47,1495.5,392.47" style="stroke:#181818;stroke-width:1.0;"/></g><!--reverse link Item to HeadGear--><g id="link_Item_HeadGear"><path codeLine="90" d="M684.23,134.1 C586.27,158.58 453.49,199.76 348.5,261.67 C333.89,270.29 319.76,282.43 308.14,293.8 " fill="none" id="Item-backto-HeadGear" style="stroke:#181818;stroke-width:1.0;"/><polygon fill="none" points="682.49,127.08,703.58,129.13,685.81,140.68,682.49,127.08" style="stroke:#181818;stroke-width:1.0;"/></g><!--reverse link Item to HandGear--><g id="link_Item_HandGear"><path codeLine="91" d="M687.28,195.55 C640.84,227 591.11,260.67 553.93,285.85 " fill="none" id="Item-backto-HandGear" style="stroke:#181818;stroke-width:1.0;"/><polygon fill="none" points="683.06,189.28,703.54,183.86,690.91,200.87,683.06,189.28" style="stroke:#181818;stroke-width:1.0;"/></g><!--reverse link Item to Footwear--><g id="link_Item_Footwear"><path codeLine="92" d="M820.5,222.76 C820.5,245.51 820.5,267.83 820.5,285.82 " fill="none" id="Item-backto-Footwear" style="stroke:#181818;stroke-width:1.0;"/><polygon fill="none" points="813.5,222.87,820.5,202.87,827.5,222.87,813.5,222.87" style="stroke:#181818;stroke-width:1.0;"/></g><!--link Item to IEquippable--><g id="link_Item_IEquippable"><path codeLine="93" d="M934.54,201.87 C963.19,226.12 992.9,251.26 1017.97,272.49 " fill="none" id="Item-to-IEquippable" style="stroke:#181818;stroke-width:1.0;stroke-dasharray:7.0,7.0;"/><polygon fill="none" points="1021.97,267.55,1032.72,285.82,1012.93,278.24,1021.97,267.55" style="stroke:#181818;stroke-width:1.0;"/></g><!--link Item to ICombinable--><g id="link_Item_ICombinable"><path codeLine="94" d="M936.4,153.35 C1003.81,182.46 1089.75,221.62 1163.5,261.67 C1175.39,268.13 1187.77,275.48 1199.61,282.83 " fill="none" id="Item-to-ICombinable" style="stroke:#181818;stroke-width:1.0;stroke-dasharray:7.0,7.0;"/><polygon fill="none" points="1202.87,277.25,1216.01,293.88,1195.37,289.07,1202.87,277.25" style="stroke:#181818;stroke-width:1.0;"/></g><!--SRC=[hLHDRzmW4BtxLt2BsoRv0LLLAKgwoHxIItEhUXZRixie63Q0jqsR_lVE0BPXFof5oWLxteF7V35duWPNKgDe5JY7hggWSTv2woCYbXvxyQSIuiCtRwLU2mqziYcr5-0zj8z4e5xxpOXsk4BjC8VNwB_IkVhTHn5b4dXL231D0ecxAMKoqYMrA4NupiWk4NkATABazrMp3N-hAiPyXz3T8jWGzr9lq4eVCv7j0Nrg3rtKWce71HuVZ0TrFCf9Qc6C__aggHEfcHIlDy0bn2WPYjA0mtWuHv8GGqkzG-sDVIQfzCSmFWrooxxKl6Iv7FH9wfZBMVbAEhbGyFeBIzyRYwpic6kCKGXwZd7sDtQdClxx3-7euzY6hZlcciNUxF0O8zrYK2g_AkH9UWbA_aRMT_MKs8EUORLhqpVqbbBMssZ527Wz5-dAifDOkNXXakY7v-tqodhu5KH2bUY7mfIZ_GPX5Y4iABeffwr5gb9GYQwTSud2SX35tT23BZjuIjQywqf9_D-kit4SqHLeLz3oH9h-nJBqnHOQXT73q8BrOLVMMNsoux50y_5KedglBfCN5gbDfT5k8xVaoFoitbzSp0suZsUTKCrToXINkWeJzTCBcUESoQ4qLZ9e70yHkhny-Ppd8KVdyAf_]--></g></svg>